#!OML:ASF C:\Vicon Data\Big\jianyuan-12\jianyuan\Session 1\Capture.male.ASF
:FULLY-SPECIFIED
:DEGREES
153
root -10.590308 16.797925 -12.271000 3.391000 -25.895285 10.406545
lowerback -11.914486 -0.129252 -8.323700 
upperback 1.356844 1.312957 -2.744053 
thorax 8.066184 0.348913 2.003304 
lowerneck -1.538239 -7.566009 -5.918615 
upperneck 8.934548 -10.589239 8.506330 
head 3.682287 -5.097800 3.092885 
rclavicle 0.000000 0.000000 
rhumerus -38.362187 -31.046361 -76.042491 
rradius 34.001640 
rwrist 38.893730 
rhand -22.159882 -4.463430 
rfingers 0.000000 
rthumb 4.254346 -34.400711 
lclavicle 0.000000 0.000000 
lhumerus -51.590074 46.375662 55.142362 
lradius 23.917835 
lwrist -63.933082 
lhand -10.350380 3.431492 
lfingers 0.000000 
lthumb 15.646190 32.818808 
rfemur -2.625027 -5.061470 11.774748 
rtibia 46.275025 
rfoot -5.040538 1.747654 
rtoes -17.221117 
lfemur -27.055291 -1.585952 -29.196276 
ltibia 24.791438 
lfoot -10.993954 1.130656 
ltoes -9.004952 
154
root -10.605749 16.803596 -12.209702 3.239647 -26.033102 10.679209
lowerback -11.898672 -0.151790 -8.582480 
upperback 1.362967 1.325737 -2.798807 
thorax 8.060778 0.345683 2.090959 
lowerneck -1.586089 -7.560869 -5.876101 
upperneck 8.928199 -10.572648 8.399695 
head 3.679261 -5.091686 3.053278 
rclavicle 0.000000 0.000000 
rhumerus -38.563908 -31.093601 -75.913839 
rradius 34.046435 
rwrist 38.855397 
rhand -22.218768 -4.693291 
rfingers 0.000000 
rthumb 4.197524 -34.631643 
lclavicle 0.000000 0.000000 
lhumerus -51.347309 46.553089 55.239685 
lradius 23.860455 
lwrist -64.329275 
lhand -10.385984 3.419787 
lfingers 0.000000 
lthumb 15.611927 32.809784 
rfemur -3.397261 -5.330577 11.348478 
rtibia 47.703804 
rfoot -4.225116 1.539193 
rtoes -16.825504 
lfemur -26.718723 -1.458401 -29.519072 
ltibia 24.689141 
lfoot -11.196592 1.061932 
ltoes -9.048161 
155
root -10.623639 16.809290 -12.147605 3.120553 -26.177864 10.887415
lowerback -11.866859 -0.187984 -8.762978 
upperback 1.336169 1.305058 -2.862642 
thorax 8.014865 0.332359 2.119148 
lowerneck -1.620117 -7.523669 -5.872287 
upperneck 8.961838 -10.523391 8.393911 
head 3.690839 -5.066117 3.051922 
rclavicle 0.000000 0.000000 
rhumerus -38.817333 -31.324974 -75.722053 
rradius 33.867030 
rwrist 39.276025 
rhand -22.425919 -4.591388 
rfingers 0.000000 
rthumb 3.997468 -34.533581 
lclavicle 0.000000 0.000000 
lhumerus -50.980276 46.511876 55.510102 
lradius 23.801708 
lwrist -64.085249 
lhand -10.338987 3.376350 
lfingers 0.000000 
lthumb 15.657117 32.762787 
rfemur -4.183612 -5.588006 11.014615 
rtibia 49.102524 
rfoot -3.480032 1.231946 
rtoes -16.409666 
lfemur -26.389107 -1.269588 -29.781716 
ltibia 24.592977 
lfoot -11.384853 0.935849 
ltoes -9.063083 
156
root -10.637673 16.814349 -12.092629 3.065897 -26.262729 10.986619
lowerback -11.755627 -0.244318 -8.725585 
upperback 1.285249 1.218759 -2.981165 
thorax 7.907646 0.301334 1.955388 
lowerneck -1.588577 -7.459898 -5.875472 
upperneck 8.977012 -10.449275 8.499474 
head 3.690238 -5.025992 3.089627 
rclavicle 0.000000 0.000000 
rhumerus -38.992991 -31.409163 -75.761012 
rradius 33.772297 
rwrist 39.381211 
rhand -22.516465 -4.563330 
rfingers 0.000000 
rthumb 3.910046 -34.507162 
lclavicle 0.000000 0.000000 
lhumerus -50.693507 46.511349 55.542789 
lradius 23.792854 
lwrist -64.555551 
lhand -10.283178 3.494990 
lfingers 0.000000 
lthumb 15.710938 32.877210 
rfemur -5.005020 -5.785743 10.803825 
rtibia 50.503108 
rfoot -2.738054 0.809090 
rtoes -16.103511 
lfemur -26.099972 -1.140151 -29.943866 
ltibia 24.472249 
lfoot -11.519997 0.834919 
ltoes -9.141698 
157
root -10.654603 16.820985 -12.029747 2.986760 -26.421182 11.159867
lowerback -11.794366 -0.291539 -8.874670 
upperback 1.281785 1.185637 -3.013559 
thorax 7.928719 0.279307 1.997838 
lowerneck -1.600520 -7.430454 -5.925843 
upperneck 8.958273 -10.406072 8.496825 
head 3.685805 -5.006822 3.098948 
rclavicle 0.000000 0.000000 
rhumerus -39.113265 -31.351208 -75.810001 
rradius 33.930825 
rwrist 38.643151 
rhand -22.383760 -4.767131 
rfingers 0.000000 
rthumb 4.038157 -34.708577 
lclavicle 0.000000 0.000000 
lhumerus -50.259100 46.509434 55.909180 
lradius 23.751823 
lwrist -64.311112 
lhand -10.322450 3.581846 
lfingers 0.000000 
lthumb 15.673073 32.967014 
rfemur -5.817437 -5.906364 10.536384 
rtibia 51.868201 
rfoot -2.080970 0.376681 
rtoes -15.945427 
lfemur -25.784151 -1.004717 -30.170645 
ltibia 24.353716 
lfoot -11.726646 0.781337 
ltoes -9.156168 
158
root -10.671123 16.825623 -11.969334 2.861748 -26.575665 11.338183
lowerback -11.767967 -0.312106 -9.051399 
upperback 1.297966 1.185752 -3.047973 
thorax 7.930319 0.272477 2.058885 
lowerneck -1.702078 -7.412761 -5.960530 
upperneck 9.016512 -10.380834 8.493244 
head 3.719896 -4.992247 3.099779 
rclavicle 0.000000 0.000000 
rhumerus -39.189169 -31.421368 -75.746058 
rradius 33.835844 
rwrist 38.380981 
rhand -22.455192 -4.785982 
rfingers 0.000000 
rthumb 3.969226 -34.728780 
lclavicle 0.000000 0.000000 
lhumerus -49.945789 46.654169 56.062815 
lradius 23.748945 
lwrist -64.509273 
lhand -10.141907 3.341273 
lfingers 0.000000 
lthumb 15.846961 32.712680 
rfemur -6.608502 -6.104648 10.237429 
rtibia 53.232476 
rfoot -1.458123 -0.058492 
rtoes -15.512681 
lfemur -25.438648 -0.893651 -30.390397 
ltibia 24.243212 
lfoot -11.922695 0.737672 
ltoes -9.122654 
159
root -10.686694 16.831988 -11.908212 2.757656 -26.695146 11.501797
lowerback -11.746684 -0.338861 -9.209919 
upperback 1.305981 1.174083 -3.073209 
thorax 7.927196 0.260822 2.117541 
lowerneck -1.706531 -7.376811 -5.966203 
upperneck 8.954303 -10.326581 8.472529 
head 3.697051 -4.967815 3.098303 
rclavicle 0.000000 0.000000 
rhumerus -39.297022 -31.592967 -75.565997 
rradius 33.645004 
rwrist 38.765776 
rhand -22.603472 -4.751546 
rfingers 0.000000 
rthumb 3.826029 -34.696919 
lclavicle 0.000000 0.000000 
lhumerus -49.386006 46.566335 56.565964 
lradius 23.711129 
lwrist -64.424367 
lhand -10.072100 3.534653 
lfingers 0.000000 
lthumb 15.914200 32.900783 
rfemur -7.417192 -6.362652 9.954649 
rtibia 54.574683 
rfoot -0.789205 -0.490157 
rtoes -14.933825 
lfemur -25.089055 -0.851294 -30.593366 
ltibia 24.114498 
lfoot -12.132566 0.736503 
ltoes -9.102714 
160
root -10.701819 16.838742 -11.847590 2.648932 -26.796666 11.623570
lowerback -11.682273 -0.380608 -9.242325 
upperback 1.313355 1.123181 -3.150368 
thorax 7.905156 0.237945 2.043332 
lowerneck -1.672508 -7.338549 -5.953229 
upperneck 8.866226 -10.276026 8.519070 
head 3.662785 -4.943374 3.115897 
rclavicle 0.000000 0.000000 
rhumerus -39.455174 -31.764162 -75.477671 
rradius 33.562636 
rwrist 38.817274 
rhand -22.540127 -4.564414 
rfingers 0.000000 
rthumb 3.887219 -34.508653 
lclavicle 0.000000 0.000000 
lhumerus -48.849820 46.471828 56.953757 
lradius 23.706249 
lwrist -64.327749 
lhand -10.032874 3.620246 
lfingers 0.000000 
lthumb 15.951964 32.983351 
rfemur -8.207385 -6.630180 9.711596 
rtibia 55.893330 
rfoot -0.228956 -0.956719 
rtoes -14.559332 
lfemur -24.701515 -0.877436 -30.746754 
ltibia 23.958787 
lfoot -12.352380 0.821322 
ltoes -9.195638 
161
root -10.718106 16.843713 -11.788321 2.525114 -26.924262 11.829066
lowerback -11.619043 -0.444670 -9.390404 
upperback 1.305453 1.056341 -3.205696 
thorax 7.867509 0.202857 2.053899 
lowerneck -1.697711 -7.292047 -6.010236 
upperneck 8.856776 -10.210303 8.524043 
head 3.662299 -4.912495 3.129233 
rclavicle 0.000000 0.000000 
rhumerus -39.598290 -31.678642 -75.479708 
rradius 33.687493 
rwrist 38.390550 
rhand -22.329976 -4.467803 
rfingers 0.000000 
rthumb 4.090131 -34.408270 
lclavicle 0.000000 0.000000 
lhumerus -48.371302 46.372927 57.382728 
lradius 23.790960 
lwrist -64.179719 
lhand -9.959230 3.683923 
lfingers 0.000000 
lthumb 16.022910 33.041333 
rfemur -9.024154 -7.029215 9.356055 
rtibia 57.190152 
rfoot 0.258390 -1.314130 
rtoes -14.927134 
lfemur -24.344663 -0.890089 -30.975244 
ltibia 23.800604 
lfoot -12.558356 0.903517 
ltoes -9.245860 
162
root -10.733414 16.848926 -11.729429 2.363859 -27.025653 12.093265
lowerback -11.534046 -0.525456 -9.628324 
upperback 1.300709 0.975780 -3.242059 
thorax 7.821406 0.157059 2.132074 
lowerneck -1.724638 -7.230107 -6.066033 
upperneck 8.836250 -10.117204 8.464936 
head 3.653396 -4.870802 3.124714 
rclavicle 0.000000 0.000000 
rhumerus -39.710368 -31.469512 -75.514045 
rradius 33.836521 
rwrist 38.031507 
rhand -22.224813 -4.478080 
rfingers 0.000000 
rthumb 4.191649 -34.416597 
lclavicle 0.000000 0.000000 
lhumerus -47.980405 46.379619 57.759055 
lradius 23.895183 
lwrist -64.232940 
lhand -9.886571 3.659083 
lfingers 0.000000 
lthumb 16.092891 33.010846 
rfemur -9.814357 -7.404066 8.942987 
rtibia 58.443882 
rfoot 0.575894 -1.713872 
rtoes -15.321452 
lfemur -23.970600 -0.918080 -31.265656 
ltibia 23.647336 
lfoot -12.760159 0.959758 
ltoes -9.210078 
